<svg xmlns="http://www.w3.org/2000/svg" width="1920" height="1080"><path d="M374,1381L-74,1402L1126,1381Z" fill="#ececec" stroke="#ececec" stroke-width="1.51"/><path d="M814,-307L1292,-278L1523,-297Z" fill="#d2d2d2" stroke="#d2d2d2" stroke-width="1.51"/><path d="M814,-307L1523,-297L1796,-308Z" fill="#e6e6e6" stroke="#e6e6e6" stroke-width="1.51"/><path d="M118,-348L814,-307L1796,-308Z" fill="#c2c2c2" stroke="#c2c2c2" stroke-width="1.51"/><path d="M1508,1361L1278,1384L1837,1399Z" fill="#e1e1e1" stroke="#e1e1e1" stroke-width="1.51"/><path d="M1278,1384L1126,1381L2006,1426Z" fill="#ebebeb" stroke="#ebebeb" stroke-width="1.51"/><path d="M1126,1381L-74,1402L2006,1426Z" fill="#c3c3c3" stroke="#c3c3c3" stroke-width="1.51"/><path d="M1837,1399L1278,1384L2006,1426Z" fill="#d3d3d3" stroke="#d3d3d3" stroke-width="1.51"/><path d="M2032,421L1991,630L2242,373Z" fill="#b6b6b6" stroke="#b6b6b6" stroke-width="1.51"/><path d="M1796,-308L2089,-288L2268,-297Z" fill="#c6c6c6" stroke="#c6c6c6" stroke-width="1.51"/><path d="M2046,908L2276,1157L2295,927Z" fill="#d4d4d4" stroke="#d4d4d4" stroke-width="1.51"/><path d="M2080,147L2295,231L2298,-101Z" fill="#d7d7d7" stroke="#d7d7d7" stroke-width="1.51"/><path d="M2028,-22L2080,147L2298,-101Z" fill="#c1c1c1" stroke="#c1c1c1" stroke-width="1.51"/><path d="M2242,373L1991,630L2327,693Z" fill="#bababa" stroke="#bababa" stroke-width="1.51"/><path d="M2046,908L2295,927L2327,693Z" fill="#e9e9e9" stroke="#e9e9e9" stroke-width="1.51"/><path d="M1991,630L2046,908L2327,693Z" fill="#cfcfcf" stroke="#cfcfcf" stroke-width="1.51"/><path d="M2295,927L2276,1157L2327,693Z" fill="#e9e9e9" stroke="#e9e9e9" stroke-width="1.51"/><path d="M2276,1157L2263,1338L2327,693Z" fill="#d3d3d3" stroke="#d3d3d3" stroke-width="1.51"/><path d="M2295,231L2242,373L2327,693Z" fill="#d1d1d1" stroke="#d1d1d1" stroke-width="1.51"/><path d="M2298,-101L2295,231L2327,693Z" fill="#ececec" stroke="#ececec" stroke-width="1.51"/><path d="M1990,1191L2263,1338L2276,1157Z" fill="#bcbcbc" stroke="#bcbcbc" stroke-width="1.51"/><path d="M2046,908L1990,1191L2276,1157Z" fill="#bcbcbc" stroke="#bcbcbc" stroke-width="1.51"/><path d="M2080,147L2242,373L2295,231Z" fill="#e5e5e5" stroke="#e5e5e5" stroke-width="1.51"/><path d="M2268,-297L2089,-288L2298,-101Z" fill="#cdcdcd" stroke="#cdcdcd" stroke-width="1.51"/><path d="M2089,-288L2028,-22L2298,-101Z" fill="#b6b6b6" stroke="#b6b6b6" stroke-width="1.51"/><path d="M2080,147L2032,421L2242,373Z" fill="#d2d2d2" stroke="#d2d2d2" stroke-width="1.51"/><path d="M1990,1191L2006,1426L2263,1338Z" fill="#c1c1c1" stroke="#c1c1c1" stroke-width="1.51"/><path d="M118,-348L350,-300L814,-307Z" fill="#e9e9e9" stroke="#e9e9e9" stroke-width="1.51"/><path d="M607,1335L374,1381L1126,1381Z" fill="#d2d2d2" stroke="#d2d2d2" stroke-width="1.51"/><path d="M814,-307L1049,-263L1292,-278Z" fill="#c0c0c0" stroke="#c0c0c0" stroke-width="1.51"/><path d="M1787,935L1810,1158L1990,1191Z" fill="#aeaeae" stroke="#aeaeae" stroke-width="1.51"/><path d="M1787,935L1990,1191L2046,908Z" fill="#b7b7b7" stroke="#b7b7b7" stroke-width="1.51"/><path d="M1991,630L1821,671L2046,908Z" fill="#bcbcbc" stroke="#bcbcbc" stroke-width="1.51"/><path d="M1825,140L2032,421L2080,147Z" fill="#d0d0d0" stroke="#d0d0d0" stroke-width="1.51"/><path d="M2028,-22L1825,140L2080,147Z" fill="#bebebe" stroke="#bebebe" stroke-width="1.51"/><path d="M1792,-86L2028,-22L2089,-288Z" fill="#a5a5a5" stroke="#a5a5a5" stroke-width="1.51"/><path d="M1796,-308L1792,-86L2089,-288Z" fill="#b1b1b1" stroke="#b1b1b1" stroke-width="1.51"/><path d="M1990,1191L1837,1399L2006,1426Z" fill="#b5b5b5" stroke="#b5b5b5" stroke-width="1.51"/><path d="M1786,471L1991,630L2032,421Z" fill="#a1a1a1" stroke="#a1a1a1" stroke-width="1.51"/><path d="M1825,140L1786,471L2032,421Z" fill="#bdbdbd" stroke="#bdbdbd" stroke-width="1.51"/><path d="M1821,671L1787,935L2046,908Z" fill="#cccccc" stroke="#cccccc" stroke-width="1.51"/><path d="M1792,-86L1825,140L2028,-22Z" fill="#b0b0b0" stroke="#b0b0b0" stroke-width="1.51"/><path d="M814,1327L607,1335L1126,1381Z" fill="#bfbfbf" stroke="#bfbfbf" stroke-width="1.51"/><path d="M1810,1158L1837,1399L1990,1191Z" fill="#a9a9a9" stroke="#a9a9a9" stroke-width="1.51"/><path d="M1786,471L1821,671L1991,630Z" fill="#a8a8a8" stroke="#a8a8a8" stroke-width="1.51"/><path d="M1611,156L1554,416L1786,471Z" fill="#d4d4d4" stroke="#d4d4d4" stroke-width="1.51"/><path d="M1787,935L1590,1186L1810,1158Z" fill="#bbbbbb" stroke="#bbbbbb" stroke-width="1.51"/><path d="M1786,471L1603,614L1821,671Z" fill="#b4b4b4" stroke="#b4b4b4" stroke-width="1.51"/><path d="M1548,886L1787,935L1821,671Z" fill="#dcdcdc" stroke="#dcdcdc" stroke-width="1.51"/><path d="M1603,614L1548,886L1821,671Z" fill="#d2d2d2" stroke="#d2d2d2" stroke-width="1.51"/><path d="M1792,-86L1611,156L1825,140Z" fill="#c7c7c7" stroke="#c7c7c7" stroke-width="1.51"/><path d="M1611,156L1786,471L1825,140Z" fill="#d9d9d9" stroke="#d9d9d9" stroke-width="1.51"/><path d="M1810,1158L1590,1186L1837,1399Z" fill="#b6b6b6" stroke="#b6b6b6" stroke-width="1.51"/><path d="M1590,1186L1508,1361L1837,1399Z" fill="#cbcbcb" stroke="#cbcbcb" stroke-width="1.51"/><path d="M1541,-47L1611,156L1792,-86Z" fill="#c7c7c7" stroke="#c7c7c7" stroke-width="1.51"/><path d="M1523,-297L1792,-86L1796,-308Z" fill="#c5c5c5" stroke="#c5c5c5" stroke-width="1.51"/><path d="M1548,886L1590,1186L1787,935Z" fill="#d2d2d2" stroke="#d2d2d2" stroke-width="1.51"/><path d="M1523,-297L1541,-47L1792,-86Z" fill="#c0c0c0" stroke="#c0c0c0" stroke-width="1.51"/><path d="M1554,416L1603,614L1786,471Z" fill="#bdbdbd" stroke="#bdbdbd" stroke-width="1.51"/><path d="M1548,886L1270,1128L1590,1186Z" fill="#dbdbdb" stroke="#dbdbdb" stroke-width="1.51"/><path d="M1554,416L1294,668L1603,614Z" fill="#cccccc" stroke="#cccccc" stroke-width="1.51"/><path d="M1294,668L1548,886L1603,614Z" fill="#e4e4e4" stroke="#e4e4e4" stroke-width="1.51"/><path d="M1355,131L1554,416L1611,156Z" fill="#f5f5f5" stroke="#f5f5f5" stroke-width="1.51"/><path d="M1541,-47L1355,131L1611,156Z" fill="#e2e2e2" stroke="#e2e2e2" stroke-width="1.51"/><path d="M1315,873L1270,1128L1548,886Z" fill="#e8e8e8" stroke="#e8e8e8" stroke-width="1.51"/><path d="M1294,668L1315,873L1548,886Z" fill="#f0f0f0" stroke="#f0f0f0" stroke-width="1.51"/><path d="M1523,-297L1300,-84L1541,-47Z" fill="#d1d1d1" stroke="#d1d1d1" stroke-width="1.51"/><path d="M1355,131L1269,413L1554,416Z" fill="#eaeaea" stroke="#eaeaea" stroke-width="1.51"/><path d="M1269,413L1294,668L1554,416Z" fill="#cbcbcb" stroke="#cbcbcb" stroke-width="1.51"/><path d="M1270,1128L1508,1361L1590,1186Z" fill="#d1d1d1" stroke="#d1d1d1" stroke-width="1.51"/><path d="M1292,-278L1300,-84L1523,-297Z" fill="#d7d7d7" stroke="#d7d7d7" stroke-width="1.51"/><path d="M1300,-84L1355,131L1541,-47Z" fill="#d7d7d7" stroke="#d7d7d7" stroke-width="1.51"/><path d="M1270,1128L1278,1384L1508,1361Z" fill="#d4d4d4" stroke="#d4d4d4" stroke-width="1.51"/><path d="M1070,935L1270,1128L1315,873Z" fill="#d4d4d4" stroke="#d4d4d4" stroke-width="1.51"/><path d="M1076,222L1269,413L1355,131Z" fill="#e3e3e3" stroke="#e3e3e3" stroke-width="1.51"/><path d="M1300,-84L1128,-17L1355,131Z" fill="#cacaca" stroke="#cacaca" stroke-width="1.51"/><path d="M1128,-17L1076,222L1355,131Z" fill="#d2d2d2" stroke="#d2d2d2" stroke-width="1.51"/><path d="M1066,378L1081,701L1269,413Z" fill="#b3b3b3" stroke="#b3b3b3" stroke-width="1.51"/><path d="M1076,222L1066,378L1269,413Z" fill="#cccccc" stroke="#cccccc" stroke-width="1.51"/><path d="M1270,1128L1126,1381L1278,1384Z" fill="#c8c8c8" stroke="#c8c8c8" stroke-width="1.51"/><path d="M1269,413L1081,701L1294,668Z" fill="#bdbdbd" stroke="#bdbdbd" stroke-width="1.51"/><path d="M1292,-278L1049,-263L1300,-84Z" fill="#c5c5c5" stroke="#c5c5c5" stroke-width="1.51"/><path d="M1049,-263L1128,-17L1300,-84Z" fill="#b2b2b2" stroke="#b2b2b2" stroke-width="1.51"/><path d="M1294,668L1081,701L1315,873Z" fill="#d6d6d6" stroke="#d6d6d6" stroke-width="1.51"/><path d="M1081,701L1070,935L1315,873Z" fill="#dddddd" stroke="#dddddd" stroke-width="1.51"/><path d="M1070,935L1032,1095L1270,1128Z" fill="#bfbfbf" stroke="#bfbfbf" stroke-width="1.51"/><path d="M1032,1095L1126,1381L1270,1128Z" fill="#b0b0b0" stroke="#b0b0b0" stroke-width="1.51"/><path d="M1066,378L872,436L1081,701Z" fill="#a4a4a4" stroke="#a4a4a4" stroke-width="1.51"/><path d="M872,436L800,629L1081,701Z" fill="#a6a6a6" stroke="#a6a6a6" stroke-width="1.51"/><path d="M860,872L1070,935L1081,701Z" fill="#cdcdcd" stroke="#cdcdcd" stroke-width="1.51"/><path d="M1032,1095L814,1327L1126,1381Z" fill="#ababab" stroke="#ababab" stroke-width="1.51"/><path d="M1049,-263L877,-78L1128,-17Z" fill="#a4a4a4" stroke="#a4a4a4" stroke-width="1.51"/><path d="M858,161L1076,222L1128,-17Z" fill="#c3c3c3" stroke="#c3c3c3" stroke-width="1.51"/><path d="M877,-78L858,161L1128,-17Z" fill="#aeaeae" stroke="#aeaeae" stroke-width="1.51"/><path d="M350,-300L601,-250L814,-307Z" fill="#dedede" stroke="#dedede" stroke-width="1.51"/><path d="M858,161L872,436L1066,378Z" fill="#bfbfbf" stroke="#bfbfbf" stroke-width="1.51"/><path d="M858,161L1066,378L1076,222Z" fill="#cbcbcb" stroke="#cbcbcb" stroke-width="1.51"/><path d="M800,629L860,872L1081,701Z" fill="#bdbdbd" stroke="#bdbdbd" stroke-width="1.51"/><path d="M860,872L1032,1095L1070,935Z" fill="#bebebe" stroke="#bebebe" stroke-width="1.51"/><path d="M793,1092L814,1327L1032,1095Z" fill="#a4a4a4" stroke="#a4a4a4" stroke-width="1.51"/><path d="M860,872L793,1092L1032,1095Z" fill="#bababa" stroke="#bababa" stroke-width="1.51"/><path d="M814,-307L877,-78L1049,-263Z" fill="#b1b1b1" stroke="#b1b1b1" stroke-width="1.51"/><path d="M559,-33L592,219L858,161Z" fill="#d9d9d9" stroke="#d9d9d9" stroke-width="1.51"/><path d="M800,629L630,856L860,872Z" fill="#d5d5d5" stroke="#d5d5d5" stroke-width="1.51"/><path d="M630,856L793,1092L860,872Z" fill="#d4d4d4" stroke="#d4d4d4" stroke-width="1.51"/><path d="M644,452L800,629L872,436Z" fill="#b3b3b3" stroke="#b3b3b3" stroke-width="1.51"/><path d="M858,161L592,219L872,436Z" fill="#d7d7d7" stroke="#d7d7d7" stroke-width="1.51"/><path d="M592,219L644,452L872,436Z" fill="#cfcfcf" stroke="#cfcfcf" stroke-width="1.51"/><path d="M814,-307L601,-250L877,-78Z" fill="#c0c0c0" stroke="#c0c0c0" stroke-width="1.51"/><path d="M601,-250L559,-33L877,-78Z" fill="#bababa" stroke="#bababa" stroke-width="1.51"/><path d="M559,-33L858,161L877,-78Z" fill="#c0c0c0" stroke="#c0c0c0" stroke-width="1.51"/><path d="M630,856L641,1087L793,1092Z" fill="#d0d0d0" stroke="#d0d0d0" stroke-width="1.51"/><path d="M793,1092L641,1087L814,1327Z" fill="#b2b2b2" stroke="#b2b2b2" stroke-width="1.51"/><path d="M565,710L630,856L800,629Z" fill="#d6d6d6" stroke="#d6d6d6" stroke-width="1.51"/><path d="M641,1087L607,1335L814,1327Z" fill="#c1c1c1" stroke="#c1c1c1" stroke-width="1.51"/><path d="M644,452L565,710L800,629Z" fill="#c1c1c1" stroke="#c1c1c1" stroke-width="1.51"/><path d="M-377,-251L-109,-269L118,-348Z" fill="#c4c4c4" stroke="#c4c4c4" stroke-width="1.51"/><path d="M559,-33L398,165L592,219Z" fill="#eaeaea" stroke="#eaeaea" stroke-width="1.51"/><path d="M318,1126L607,1335L641,1087Z" fill="#c8c8c8" stroke="#c8c8c8" stroke-width="1.51"/><path d="M630,856L373,856L641,1087Z" fill="#ebebeb" stroke="#ebebeb" stroke-width="1.51"/><path d="M373,856L318,1126L641,1087Z" fill="#e1e1e1" stroke="#e1e1e1" stroke-width="1.51"/><path d="M407,685L565,710L644,452Z" fill="#d2d2d2" stroke="#d2d2d2" stroke-width="1.51"/><path d="M379,405L407,685L644,452Z" fill="#d0d0d0" stroke="#d0d0d0" stroke-width="1.51"/><path d="M592,219L379,405L644,452Z" fill="#e2e2e2" stroke="#e2e2e2" stroke-width="1.51"/><path d="M318,1126L374,1381L607,1335Z" fill="#d7d7d7" stroke="#d7d7d7" stroke-width="1.51"/><path d="M565,710L373,856L630,856Z" fill="#f2f2f2" stroke="#f2f2f2" stroke-width="1.51"/><path d="M350,-300L339,-16L559,-33Z" fill="#c8c8c8" stroke="#c8c8c8" stroke-width="1.51"/><path d="M398,165L379,405L592,219Z" fill="#f5f5f5" stroke="#f5f5f5" stroke-width="1.51"/><path d="M350,-300L559,-33L601,-250Z" fill="#d9d9d9" stroke="#d9d9d9" stroke-width="1.51"/><path d="M407,685L373,856L565,710Z" fill="#eaeaea" stroke="#eaeaea" stroke-width="1.51"/><path d="M339,-16L398,165L559,-33Z" fill="#dddddd" stroke="#dddddd" stroke-width="1.51"/><path d="M159,-16L339,-16L350,-300Z" fill="#b9b9b9" stroke="#b9b9b9" stroke-width="1.51"/><path d="M73,922L318,1126L373,856Z" fill="#d5d5d5" stroke="#d5d5d5" stroke-width="1.51"/><path d="M82,1329L-74,1402L374,1381Z" fill="#c5c5c5" stroke="#c5c5c5" stroke-width="1.51"/><path d="M318,1126L82,1329L374,1381Z" fill="#c4c4c4" stroke="#c4c4c4" stroke-width="1.51"/><path d="M119,215L379,405L398,165Z" fill="#e4e4e4" stroke="#e4e4e4" stroke-width="1.51"/><path d="M143,666L373,856L407,685Z" fill="#d8d8d8" stroke="#d8d8d8" stroke-width="1.51"/><path d="M379,405L137,457L407,685Z" fill="#bebebe" stroke="#bebebe" stroke-width="1.51"/><path d="M137,457L143,666L407,685Z" fill="#bcbcbc" stroke="#bcbcbc" stroke-width="1.51"/><path d="M115,1161L82,1329L318,1126Z" fill="#b0b0b0" stroke="#b0b0b0" stroke-width="1.51"/><path d="M119,215L137,457L379,405Z" fill="#cccccc" stroke="#cccccc" stroke-width="1.51"/><path d="M339,-16L159,-16L398,165Z" fill="#cfcfcf" stroke="#cfcfcf" stroke-width="1.51"/><path d="M159,-16L119,215L398,165Z" fill="#d4d4d4" stroke="#d4d4d4" stroke-width="1.51"/><path d="M118,-348L159,-16L350,-300Z" fill="#c2c2c2" stroke="#c2c2c2" stroke-width="1.51"/><path d="M143,666L73,922L373,856Z" fill="#d9d9d9" stroke="#d9d9d9" stroke-width="1.51"/><path d="M73,922L115,1161L318,1126Z" fill="#bcbcbc" stroke="#bcbcbc" stroke-width="1.51"/><path d="M119,215L-119,386L137,457Z" fill="#bcbcbc" stroke="#bcbcbc" stroke-width="1.51"/><path d="M-69,875L73,922L143,666Z" fill="#cbcbcb" stroke="#cbcbcb" stroke-width="1.51"/><path d="M-106,623L-69,875L143,666Z" fill="#b8b8b8" stroke="#b8b8b8" stroke-width="1.51"/><path d="M137,457L-106,623L143,666Z" fill="#a7a7a7" stroke="#a7a7a7" stroke-width="1.51"/><path d="M118,-348L-109,-269L159,-16Z" fill="#b1b1b1" stroke="#b1b1b1" stroke-width="1.51"/><path d="M-109,-269L-119,-43L159,-16Z" fill="#9f9f9f" stroke="#9f9f9f" stroke-width="1.51"/><path d="M-92,188L119,215L159,-16Z" fill="#c4c4c4" stroke="#c4c4c4" stroke-width="1.51"/><path d="M-119,-43L-92,188L159,-16Z" fill="#b2b2b2" stroke="#b2b2b2" stroke-width="1.51"/><path d="M73,922L-151,1133L115,1161Z" fill="#acacac" stroke="#acacac" stroke-width="1.51"/><path d="M-92,188L-119,386L119,215Z" fill="#c8c8c8" stroke="#c8c8c8" stroke-width="1.51"/><path d="M-119,386L-106,623L137,457Z" fill="#a5a5a5" stroke="#a5a5a5" stroke-width="1.51"/><path d="M-151,1133L82,1329L115,1161Z" fill="#a0a0a0" stroke="#a0a0a0" stroke-width="1.51"/><path d="M-69,875L-151,1133L73,922Z" fill="#bfbfbf" stroke="#bfbfbf" stroke-width="1.51"/><path d="M-151,1133L-74,1402L82,1329Z" fill="#b0b0b0" stroke="#b0b0b0" stroke-width="1.51"/><path d="M-310,1130L-401,1365L-151,1133Z" fill="#bdbdbd" stroke="#bdbdbd" stroke-width="1.51"/><path d="M-314,-104L-119,-43L-109,-269Z" fill="#b3b3b3" stroke="#b3b3b3" stroke-width="1.51"/><path d="M-367,227L-119,386L-92,188Z" fill="#d9d9d9" stroke="#d9d9d9" stroke-width="1.51"/><path d="M-119,-43L-367,227L-92,188Z" fill="#d1d1d1" stroke="#d1d1d1" stroke-width="1.51"/><path d="M-151,1133L-401,1365L-74,1402Z" fill="#c2c2c2" stroke="#c2c2c2" stroke-width="1.51"/><path d="M-310,1130L-151,1133L-69,875Z" fill="#c1c1c1" stroke="#c1c1c1" stroke-width="1.51"/><path d="M-408,931L-310,1130L-69,875Z" fill="#d5d5d5" stroke="#d5d5d5" stroke-width="1.51"/><path d="M-106,623L-413,698L-69,875Z" fill="#cccccc" stroke="#cccccc" stroke-width="1.51"/><path d="M-413,698L-408,931L-69,875Z" fill="#e7e7e7" stroke="#e7e7e7" stroke-width="1.51"/><path d="M-119,386L-386,378L-106,623Z" fill="#bbbbbb" stroke="#bbbbbb" stroke-width="1.51"/><path d="M-314,-104L-367,227L-119,-43Z" fill="#c9c9c9" stroke="#c9c9c9" stroke-width="1.51"/><path d="M-386,378L-413,698L-106,623Z" fill="#bebebe" stroke="#bebebe" stroke-width="1.51"/><path d="M-367,227L-386,378L-119,386Z" fill="#d8d8d8" stroke="#d8d8d8" stroke-width="1.51"/><path d="M-377,-251L-314,-104L-109,-269Z" fill="#c6c6c6" stroke="#c6c6c6" stroke-width="1.51"/><path d="M-377,-251L-367,227L-314,-104Z" fill="#c8c8c8" stroke="#c8c8c8" stroke-width="1.51"/><path d="M-408,931L-401,1365L-310,1130Z" fill="#c6c6c6" stroke="#c6c6c6" stroke-width="1.51"/><path d="M-377,-251L-386,378L-367,227Z" fill="#e3e3e3" stroke="#e3e3e3" stroke-width="1.51"/><path d="M-413,698L-386,378L-377,-251Z" fill="#ececec" stroke="#ececec" stroke-width="1.51"/></svg>